<?xml version="1.0" encoding="utf-8"?>
<!-- Generator: Adobe Illustrator 23.0.3, SVG Export Plug-In . SVG Version: 6.00 Build 0)  -->
<svg version="1.1"
	 id="svg01" inkscape:output_extension="org.inkscape.output.svg.inkscape" inkscape:version="0.47 r22583" sodipodi:docname="ANZ-Logo-2010-2.svg" xmlns:cc="http://creativecommons.org/ns#" xmlns:dc="http://purl.org/dc/elements/1.1/" xmlns:inkscape="http://www.inkscape.org/namespaces/inkscape" xmlns:rdf="http://www.w3.org/1999/02/22-rdf-syntax-ns#" xmlns:sodipodi="http://sodipodi.sourceforge.net/DTD/sodipodi-0.dtd" xmlns:svg="http://www.w3.org/2000/svg"
	 xmlns="http://www.w3.org/2000/svg" xmlns:xlink="http://www.w3.org/1999/xlink" x="0px" y="0px" viewBox="0 0 128.7 42"
	 style="enable-background:new 0 0 128.7 42;" xml:space="preserve">
<style type="text/css">
	.st0{fill:#007DBA;}
</style>
<defs>
	
	
		<inkscape:perspective  id="perspective11" inkscape:persp3d-origin="210 : 46.666667 : 1" inkscape:vp_x="0 : 70 : 1" inkscape:vp_y="0 : 1000 : 0" inkscape:vp_z="420 : 70 : 1" sodipodi:type="inkscape:persp3d">
		</inkscape:perspective>
</defs>
<sodipodi:namedview  bordercolor="#666666" borderopacity="1" gridtolerance="10" guidetolerance="10" id="namedview7" inkscape:current-layer="svg01" inkscape:cx="210" inkscape:cy="70" inkscape:pageopacity="0" inkscape:pageshadow="2" inkscape:window-height="663" inkscape:window-maximized="0" inkscape:window-width="1090" inkscape:window-x="119" inkscape:window-y="9" inkscape:zoom="1.2833333" objecttolerance="10" pagecolor="#ffffff" showgrid="false">
	</sodipodi:namedview>
<g id="g001" transform="matrix(0,0.4391693,-0.4391693,0,438.9744,-76.985248)">
	<path id="anztxt01" class="st0" d="M250.1,815.6v22l-11.9-9V853l11.5,8.7c4.6,3.3,9.1,3.6,12.3,3.6h1.8c2.1,0,3.2-1.3,3.2-3.2
		v-46.5c0-1.9-1-3.1-3.2-3.1h-10.6C251.1,812.4,250.1,813.7,250.1,815.6 M208,940.9c-2,0.4-3,1.7-3,3.5v6.2c0,6.5,3.4,12.2,8.6,15.4
		c0,0,9.5,5.9,20.2,12.6v-42.2L208,940.9z M208.2,871.3c-2.1,0-3.2,1.3-3.2,3.2v12.7c0,1.9,1,3.1,3.2,3.1h24l-21.6,12
		c-4,2.4-5.5,6.4-5.6,11.2v9.4c0,1.9,1,3.1,3.2,3.1h25.7v-15.7l4.3-2.4v18.2h25.7c2.1,0,3.2-1.3,3.2-3.1v-12.7
		c0-1.9-1.1-3.1-3.2-3.1l-24.2,0l21.8-12.1c4-2.4,5.5-6.4,5.6-11.1v-9.3c0-1.9-1.1-3.2-3.2-3.2h-25.7v15.6l-4.3,2.4v-18H208.2
		L208.2,871.3z M238.2,935.6v20.9c2.9-0.5,24.6-4.4,25.9-4.6c2-0.4,2.9-1.6,2.9-3.4v-14.4c0-1.3-0.4-2-1.2-2.6
		c-0.5-0.4-1.3-0.6-2.5-0.4L238.2,935.6L238.2,935.6z M263.1,996.8c1,0.6,2,0.6,2.7,0.2c0.8-0.4,1.2-1.3,1.2-2.3v-14.9
		c0-1.9-1-3.6-2.5-4.5l-26.3-16.4v22.3C250.5,988.9,262.8,996.6,263.1,996.8 M222,861.7v-21l11.9,9v-24.5l-11.7-8.9
		c-3.6-2.8-6.9-3.4-9.7-3.4h-4.1c-2.1,0-3.2,1.3-3.2,3.2v45.5c0,1.9,1,3.1,3.2,3.1h10.6C220.9,864.8,222,863.6,222,861.7"/>
	<path id="symbol01" class="st0" d="M204.2,757.5c0-4.3,3.7-9.2,8.9-9.2c2.9,0,5.1,0.9,7.2,2.3c1.3,0.9,2.8,1.5,3.9,1.8
		c1.2,0.3,4.2,0.9,4.2-2.7c0.1-2.4-2-8.2-7.6-12.8c-4.5-3.6-10.3-5.7-16.6-5.7c-14.7,0-26.6,11.8-26.6,26.3
		c0,14.6,11.9,26.4,26.6,26.4c6.3,0,12-2.1,16.6-5.7c5.7-4.7,7.7-10.5,7.6-12.8c0-3.6-3-3-4.2-2.7c-1.1,0.3-2.6,0.9-3.9,1.8
		c-2,1.4-4.3,2.3-7.2,2.3C207.9,766.7,204.2,761.8,204.2,757.5 M231.1,710.9c-0.9,1.1-2.2,3-2.8,6.9c-0.8,5.4,0.5,10.2,1.6,13.1
		c1.5,3.8,4.9,8.5,9.4,11.8c4.7,3.4,11.8,5.2,19.3,3.5c2.1-0.5,3.3-1,4.7-1.8c2-1,4.8-3.7,5.3-6c0.4-1.8-0.7-3.3-1.5-4
		c-5.5-4.7-26.6-22.6-29.3-24.5C235.1,707.9,232.5,709.1,231.1,710.9 M229.9,784.1c-1.2,2.9-2.4,7.7-1.6,13.1
		c0.6,3.9,1.9,5.8,2.8,6.9c1.5,1.7,4,3,6.7,1.1c2.7-1.9,23.8-19.8,29.3-24.5c0.8-0.7,1.9-2.2,1.5-4c-0.5-2.4-3.3-5-5.3-6
		c-1.5-0.8-2.6-1.3-4.7-1.8c-7.4-1.7-14.6,0.1-19.3,3.5C234.8,775.6,231.4,780.3,229.9,784.1"/>
</g>
</svg>
