<svg xmlns="http://www.w3.org/2000/svg" width="14.167" height="25" viewBox="0 0 14.167 25"><g transform="translate(-13)"><path d="M25.331,0h-10.5A1.838,1.838,0,0,0,13,1.835V23.164A1.838,1.838,0,0,0,14.835,25h10.5a1.838,1.838,0,0,0,1.836-1.835V1.835A1.838,1.838,0,0,0,25.331,0Zm-11.5,3.333h12.5V19.167h-12.5Zm1-2.5h10.5a1,1,0,0,1,1,1V2.5h-12.5V1.835A1,1,0,0,1,14.835.833Zm10.5,23.333h-10.5a1,1,0,0,1-1-1V20h12.5v3.165A1,1,0,0,1,25.331,24.167Z" fill="#313032"/><path d="M27.667,49a1.667,1.667,0,1,0,1.667,1.667A1.668,1.668,0,0,0,27.667,49Zm0,2.5a.833.833,0,1,1,.833-.833A.834.834,0,0,1,27.667,51.5Z" transform="translate(-7.583 -28.583)" fill="#313032"/><path d="M25.417,3.833h1.667a.417.417,0,1,0,0-.833H25.417a.417.417,0,0,0,0,.833Z" transform="translate(-7 -1.75)" fill="#313032"/><path d="M32.417,3.833h.417a.417.417,0,0,0,0-.833h-.417a.417.417,0,0,0,0,.833Z" transform="translate(-11.083 -1.75)" fill="#313032"/></g></svg>