<svg xmlns="http://www.w3.org/2000/svg" width="8.5" height="15" viewBox="0 0 8.5 15"><g transform="translate(-13)"><path d="M20.4,0H14.1A1.1,1.1,0,0,0,13,1.1V13.9A1.1,1.1,0,0,0,14.1,15h6.3a1.1,1.1,0,0,0,1.1-1.1V1.1A1.1,1.1,0,0,0,20.4,0ZM13.5,2H21v9.5H13.5ZM14.1.5h6.3a.6.6,0,0,1,.6.6v.4H13.5V1.1A.6.6,0,0,1,14.1.5Zm6.3,14H14.1a.6.6,0,0,1-.6-.6V12H21v1.9A.6.6,0,0,1,20.4,14.5Z" fill="#313032"/><path d="M27,49a1,1,0,1,0,1,1A1,1,0,0,0,27,49Zm0,1.5a.5.5,0,1,1,.5-.5A.5.5,0,0,1,27,50.5Z" transform="translate(-9.75 -36.75)" fill="#313032"/><path d="M25.25,3.5h1a.25.25,0,1,0,0-.5h-1a.25.25,0,1,0,0,.5Z" transform="translate(-9 -2.25)" fill="#313032"/><path d="M32.25,3.5h.25a.25.25,0,1,0,0-.5h-.25a.25.25,0,1,0,0,.5Z" transform="translate(-14.25 -2.25)" fill="#313032"/></g></svg>