<svg xmlns="http://www.w3.org/2000/svg" width="129.512" height="25" viewBox="0 0 129.512 25"><path d="M13.006,1.895A7.8,7.8,0,0,0,7.641,0,8.785,8.785,0,0,0,.509,3.491L3.651,6.579A4.1,4.1,0,0,1,7.3,4.526a2.761,2.761,0,0,1,2.08.8A2.864,2.864,0,0,1,10.154,7.4v.28a12.6,12.6,0,0,0-3.413-.491A7.813,7.813,0,0,0,1.936,8.649,4.948,4.948,0,0,0,0,12.86a5.338,5.338,0,0,0,1.613,4.026,5.934,5.934,0,0,0,4.3,1.553,6.24,6.24,0,0,0,4.313-1.562v1.158h4.907v-11A6.51,6.51,0,0,0,13.006,1.895ZM10.154,13.035a4.923,4.923,0,0,1-3.073,1.088,2.473,2.473,0,0,1-1.528-.447,1.362,1.362,0,0,1-.594-1.132A1.534,1.534,0,0,1,5.722,11.2a3.853,3.853,0,0,1,2.123-.5,10.124,10.124,0,0,1,2.309.333Z" transform="translate(0 0)" fill="#e40040"/><path d="M187.587,6.93l-2.53-.614q-1.223-.263-1.223-.93a.872.872,0,0,1,.441-.737,2.027,2.027,0,0,1,1.155-.3,6.258,6.258,0,0,1,4.041,1.719l3.023-3.3A9.875,9.875,0,0,0,185.635,0a7.238,7.238,0,0,0-4.687,1.544,4.824,4.824,0,0,0-1.919,4.018q0,4.316,5.569,5.754l2.258.579q1.528.368,1.528,1.105a.954.954,0,0,1-.56.833,2.633,2.633,0,0,1-1.341.325,6.837,6.837,0,0,1-4.873-2.333l-3.022,3.193a8.607,8.607,0,0,0,3.158,2.439,9.806,9.806,0,0,0,4.313.982,7.989,7.989,0,0,0,5.179-1.579,5.032,5.032,0,0,0,1.953-4.105Q193.191,8.281,187.587,6.93Z" transform="translate(-124.667 0)" fill="#e40040"/><path d="M134.951,2.544A8.085,8.085,0,0,0,128.906,0a6.188,6.188,0,0,0-4.449,1.684V.421h-4.873V25h4.941V16.93a6.348,6.348,0,0,0,4.381,1.509,8.093,8.093,0,0,0,6.045-2.562,9.16,9.16,0,0,0,2.479-6.649A9.207,9.207,0,0,0,134.951,2.544Zm-3.719,10a3.524,3.524,0,0,1-2.819,1.281,3.656,3.656,0,0,1-2.853-1.281,4.942,4.942,0,0,1-1.1-3.316,4.916,4.916,0,0,1,1.1-3.3,3.667,3.667,0,0,1,2.853-1.3,3.535,3.535,0,0,1,2.819,1.3,4.778,4.778,0,0,1,1.155,3.3A4.8,4.8,0,0,1,131.232,12.544Z" transform="translate(-83.478 0)" fill="#e40040"/><path d="M72.628,2.544A8.084,8.084,0,0,0,66.583,0a6.188,6.188,0,0,0-4.449,1.684V.421H57.261V25H62.2V16.93a6.348,6.348,0,0,0,4.381,1.509,8.093,8.093,0,0,0,6.045-2.562,9.16,9.16,0,0,0,2.479-6.649A9.207,9.207,0,0,0,72.628,2.544Zm-3.719,10a3.523,3.523,0,0,1-2.818,1.281,3.655,3.655,0,0,1-2.853-1.281,4.941,4.941,0,0,1-1.1-3.316,4.914,4.914,0,0,1,1.1-3.3,3.667,3.667,0,0,1,2.853-1.3,3.535,3.535,0,0,1,2.818,1.3,4.777,4.777,0,0,1,1.155,3.3A4.8,4.8,0,0,1,68.909,12.544Z" transform="translate(-39.972 0)" fill="#e40040"/><path d="M340.813,18.441V.827h4.873v1.6A5.154,5.154,0,0,1,349.931.581q1,0,1.307.035v4.93h-.764a4.371,4.371,0,0,0-3.464,1.43,6.015,6.015,0,0,0-1.257,4.1v7.368Z" transform="translate(-237.912 -0.406)" fill="#e40040" fill-rule="evenodd"/><path d="M225.784,9.228a9.089,9.089,0,0,1,2.564-6.579A8.69,8.69,0,0,1,234.784,0a9.3,9.3,0,0,1,7.131,3.526L238.57,6.86a4.594,4.594,0,0,0-3.617-2.053A3.883,3.883,0,0,0,232,6.053a4.45,4.45,0,0,0-1.172,3.175A4.45,4.45,0,0,0,232,12.4a3.884,3.884,0,0,0,2.955,1.246,4.918,4.918,0,0,0,3.973-2.3l3.328,3.351a8.874,8.874,0,0,1-7.471,3.737,8.578,8.578,0,0,1-6.436-2.632A9.089,9.089,0,0,1,225.784,9.228Z" transform="translate(-157.613 0)" fill="#e40040" fill-rule="evenodd"/><path d="M293.216,2.649A8.543,8.543,0,0,0,286.815,0a8.69,8.69,0,0,0-6.436,2.649,9.089,9.089,0,0,0-2.564,6.579,9.089,9.089,0,0,0,2.564,6.579,9.185,9.185,0,0,0,12.871,0,9.1,9.1,0,0,0,2.581-6.579A8.993,8.993,0,0,0,293.216,2.649Zm-3.549,9.789a3.889,3.889,0,0,1-5.7,0,4.659,4.659,0,0,1-1.1-3.21,4.635,4.635,0,0,1,1.1-3.193,3.853,3.853,0,0,1,5.7,0,4.633,4.633,0,0,1,1.121,3.193A4.657,4.657,0,0,1,289.668,12.439Z" transform="translate(-193.936 0)" fill="#e40040" fill-rule="evenodd"/><path d="M390.593,9.018A9.827,9.827,0,0,0,388.437,2.7,7.315,7.315,0,0,0,382.375,0a7.732,7.732,0,0,0-6.045,2.649A9.678,9.678,0,0,0,374,9.333a8.9,8.9,0,0,0,2.53,6.614,9.394,9.394,0,0,0,13.737-1.07l-3.26-3.158a4.971,4.971,0,0,1-4.177,2.035,3.824,3.824,0,0,1-2.589-.886,3.645,3.645,0,0,1-1.231-2.342h11.546ZM379.251,7.105a3.108,3.108,0,0,1,3.226-2.614,2.82,2.82,0,0,1,2,.746,2.751,2.751,0,0,1,.883,1.868Z" transform="translate(-261.082 0)" fill="#e40040" fill-rule="evenodd"/></svg>