<svg xmlns="http://www.w3.org/2000/svg" width="14.993" height="15" viewBox="0 0 14.993 15">
  <g id="Group_161" data-name="Group 161" transform="translate(-598 -613)">
    <path id="Path_48" data-name="Path 48" d="M13.735,0H1.258A1.429,1.429,0,0,0,0,1.55v11.9A1.429,1.429,0,0,0,1.258,15H13.735a1.429,1.429,0,0,0,1.258-1.55V1.55A1.429,1.429,0,0,0,13.735,0ZM1.258.618H13.735a.853.853,0,0,1,.736.933V3.838H.522V1.55A.853.853,0,0,1,1.258.618ZM13.735,14.382H1.258a.853.853,0,0,1-.735-.933V4.456H14.471V13.45A.853.853,0,0,1,13.735,14.382Zm0,0" transform="translate(598 613)" fill="#313032"/>
    <path id="Path_49" data-name="Path 49" d="M81.342,25.73a1.135,1.135,0,1,0-1.1-1.135A1.117,1.117,0,0,0,81.342,25.73Zm0-1.652a.519.519,0,1,1-.479.517A.5.5,0,0,1,81.342,24.079Zm0,0" transform="translate(521.294 590.574)" fill="#313032"/>
    <path id="Path_50" data-name="Path 50" d="M139.334,25.73a1.135,1.135,0,1,0-1.1-1.135A1.117,1.117,0,0,0,139.334,25.73Zm0-1.652a.519.519,0,1,1-.478.517A.5.5,0,0,1,139.334,24.079Zm0,0" transform="translate(465.86 590.574)" fill="#313032"/>
    <path id="Path_51" data-name="Path 51" d="M23.354,25.73a1.135,1.135,0,1,0-1.1-1.135A1.117,1.117,0,0,0,23.354,25.73Zm0-1.652a.519.519,0,1,1-.478.517A.5.5,0,0,1,23.354,24.079Zm0,0" transform="translate(576.724 590.574)" fill="#313032"/>
    <path id="Path_52" data-name="Path 52" d="M128.963,137.933h-.229v-.081a.724.724,0,0,0-.412-.653,1.893,1.893,0,0,0-.285-.787l.534-.6a.309.309,0,1,0-.462-.409l-.487.551a1.9,1.9,0,0,0-2.339-.032l-.5-.56a.309.309,0,1,0-.463.409l.53.6a1.907,1.907,0,0,0-.323.828.732.732,0,0,0-.43.658v.081h-.184a.915.915,0,0,0-.919.925v.076a.309.309,0,0,0,.618,0v-.076a.3.3,0,0,1,.3-.307h.184v.706h-.038a.923.923,0,0,0-.933.92v.23a.309.309,0,1,0,.618,0v-.23a.3.3,0,0,1,.315-.3h.038v.175a2.068,2.068,0,0,0,.1.568.918.918,0,0,0-.628.887v.234a.309.309,0,1,0,.618,0V141.5a.3.3,0,0,1,.284-.308,2.049,2.049,0,0,0,1.707.927h.493a2.073,2.073,0,0,0,1.732-.971h.012a.331.331,0,0,1,.317.331v.255a.309.309,0,0,0,.618,0v-.255a.935.935,0,0,0-.687-.9,2.06,2.06,0,0,0,.069-.537v-.175h.082a.323.323,0,0,1,.315.323v.209a.309.309,0,0,0,.618,0V140.2a.941.941,0,0,0-.933-.94h-.082v-.706h.229a.3.3,0,0,1,.3.307v.076a.309.309,0,0,0,.618,0v-.076a.915.915,0,0,0-.919-.925Zm-1.591-1.376a.317.317,0,0,0,.06.073s0,.009.007.011a1.356,1.356,0,0,1,.244.5h-2.5a1.205,1.205,0,0,1,.282-.543s0,0,0,0a.32.32,0,0,0,.045-.05,1.287,1.287,0,0,1,1.863.017Zm-2.652,3.492v-2.2a.114.114,0,0,1,.092-.1s.012.006.017.006l.045,0h1.257v3.737A1.456,1.456,0,0,1,124.719,140.049Zm2.029,1.444v-3.737h1.24l.042,0s0,0,0,0a.1.1,0,0,1,.082.1v1.643c0,.025-.01.052-.01.079s.01.053.01.079v.4A1.444,1.444,0,0,1,126.749,141.493Zm0,0" transform="translate(479.428 483.715)" fill="#313032"/>
  </g>
</svg>
