<svg xmlns="http://www.w3.org/2000/svg" width="8.385" height="10" viewBox="0 0 8.385 10"><g transform="translate(-58.919)"><g transform="translate(58.919 0)"><g transform="translate(0 0)"><path d="M124.3,210.792a.156.156,0,1,1,.312,0v5.994a.967.967,0,0,1-.964.964H118.8a.967.967,0,0,1-.964-.964v-5.994a.156.156,0,1,1,.312,0v5.994a.654.654,0,0,0,.651.651h4.844a.655.655,0,0,0,.651-.651v-5.994Z" transform="translate(-117.032 -207.75)"/><path d="M257.371,219.288a.156.156,0,0,1-.312,0v-5.55a.156.156,0,0,1,.313,0Z" transform="translate(-254.343 -210.656)"/><path d="M353.828,219.288a.156.156,0,1,1-.312,0v-5.55a.156.156,0,0,1,.313,0Z" transform="translate(-349.48 -210.656)"/><path d="M450.309,219.288a.156.156,0,1,1-.312,0v-5.55a.156.156,0,1,1,.312,0v5.55Z" transform="translate(-444.639 -210.656)"/><path d="M250.719.964a.156.156,0,1,1-.312,0A.966.966,0,0,1,251.371,0h1.211a.967.967,0,0,1,.964.964.156.156,0,1,1-.312,0,.654.654,0,0,0-.651-.651h-1.211a.654.654,0,0,0-.651.651Z" transform="translate(-247.783 0)"/><path d="M59.479,103.108h7.266a.558.558,0,0,1,.395.164h0a.558.558,0,0,1,.164.395v.4a.156.156,0,0,1-.156.156H59.075a.156.156,0,0,1-.156-.156v-.4a.558.558,0,0,1,.164-.395h0a.558.558,0,0,1,.395-.164Zm7.266.313H59.479a.246.246,0,0,0-.174.072h0a.245.245,0,0,0-.072.174v.247h7.76v-.247a.246.246,0,0,0-.072-.174h0A.245.245,0,0,0,66.745,103.421Z" transform="translate(-58.919 -101.695)"/></g></g></g></svg>