<?xml version="1.0" encoding="utf-8"?>
<!-- Generator: Adobe Illustrator 23.0.3, SVG Export Plug-In . SVG Version: 6.00 Build 0)  -->
<svg version="1.1" id="Layer_1" xmlns="http://www.w3.org/2000/svg" xmlns:xlink="http://www.w3.org/1999/xlink" x="0px" y="0px"
	 viewBox="0 0 104.5 42" style="enable-background:new 0 0 104.5 42;" xml:space="preserve">
<style type="text/css">
	.st0{fill:#007CC2;}
</style>
<title>Carsales-Logo-WHITE</title>
<g>
	<path class="st0" d="M100.9,24c-9.1-8.3-25.1-9-25.3-9H75l-0.5-0.5c-0.1-0.1-10.6-9.6-25.1-9.6c-17.3,0-29,13-29.2,13.1l-0.7,0.7
		L1.2,17l0.6-3.9L18,14.6C20.9,11.7,32.6,1,49.3,1C63.6,1,74,9,76.5,11.1c3.4,0.2,17.9,1.6,27,9.9L100.9,24z"/>
	<path class="st0" d="M12.6,30.9c-0.7-1.7-2.3-2.8-4.1-2.7c-3.5,0-4.8,2.9-4.8,5.2c0,2.5,1.6,5.2,4.7,5.2c1.8,0,3.4-1,4.1-2.7h3.1
		c-1,3.1-3.9,5.2-7.2,5.2C3.7,41,1,37.1,1,33.3c-0.1-4.1,3.1-7.6,7.2-7.7c0.1,0,0.2,0,0.3,0c3.3,0,6.2,2.1,7.2,5.3H12.6z"/>
	<path class="st0" d="M29.4,40.6v-2.3h-0.1c-1.1,1.7-2.9,2.7-5,2.6c-4.1,0.1-7.6-3.1-7.7-7.2c0-0.1,0-0.2,0-0.4
		c0-3.6,2.5-7.7,7.7-7.7c2-0.1,3.8,0.8,5,2.4h0.1V26h2.7v14.6H29.4z M24.4,28.1c-3.4,0-5,2.9-5,5.2c0,2.8,2.2,5,5,5c2.8,0,5-2.2,5-5
		c0,0,0,0,0,0c0.1-2.7-2-5.1-4.7-5.2C24.6,28.1,24.5,28.1,24.4,28.1z"/>
	<path class="st0" d="M66.3,40.6v-2.3h-0.1c-1.1,1.7-2.9,2.7-4.9,2.6c-4.1,0.2-7.6-3.1-7.7-7.2c0-0.1,0-0.3,0-0.4
		c0-3.6,2.5-7.7,7.7-7.7c2-0.1,3.8,0.8,4.9,2.4h0.1V26H69v14.6H66.3z M61.3,28.1c-3.4,0-5,2.9-5,5.2c0,2.8,2.2,5,5,5
		c2.8,0,5-2.2,5-5c0,0,0,0,0,0c0.1-2.7-2-5.1-4.7-5.2C61.5,28.1,61.4,28.1,61.3,28.1z"/>
	<path class="st0" d="M73.7,40.6H71V21.2h2.7L73.7,40.6z"/>
	<path class="st0" d="M78,34.5c0.5,2.3,2.5,3.9,4.8,4c1.7,0,3.3-0.9,4.2-2.4h2.7c-1,3-3.8,4.9-7,5c-4.2-0.1-7.5-3.5-7.4-7.7
		c-0.1-4.1,3.2-7.5,7.4-7.5c4.1-0.1,7.5,3.2,7.5,7.4c0,0.5-0.1,1.2-0.1,1.4H78z M87.4,32.4c-0.3-2.6-2.6-4.5-5.2-4.2
		c-2.2,0.2-4,2-4.2,4.2H87.4z"/>
	<path class="st0" d="M94.5,29.8c0-0.6,0.5-1.8,2.3-1.8c1.2,0,2.2,0.8,2.4,2h2.7c-0.2-2.6-2.5-4.5-5.1-4.3c-3.9,0-4.8,2.7-4.9,4
		c-0.2,4.7,7.6,3.9,7.5,7c0,0.6-0.6,1.9-2.8,1.9c-1.5,0.1-2.8-1.1-3-2.6H91c0.2,2.9,2.7,5.1,5.6,5c4.4,0,5.3-3.1,5.3-4.3
		C102.3,31.7,94.4,32,94.5,29.8z"/>
	<path class="st0" d="M45,29.8c0-0.6,0.5-1.8,2.3-1.8c1.2,0,2.2,0.8,2.4,2h2.7c-0.2-2.6-2.5-4.5-5.1-4.3c-3.9,0-4.8,2.7-4.9,4
		c-0.2,4.7,7.6,3.9,7.5,7c0,0.6-0.6,1.9-2.8,1.9c-1.5,0.1-2.8-1.1-3-2.6h-2.6c0.2,2.9,2.7,5.1,5.6,5c4.4,0,5.3-3.1,5.3-4.3
		C52.7,31.7,44.9,32,45,29.8z"/>
	<path class="st0" d="M40.6,25.6c-1.6-0.1-3.2,0.6-4.2,2l0,0V26h-2.6v14.6h2.7v-7.9c0-1.1,0-4.4,3.6-4.4c0.3,0,0.6,0.1,0.9,0.2
		l1.2-2.5C41.8,25.8,41.2,25.7,40.6,25.6z"/>
</g>
</svg>
