<svg xmlns="http://www.w3.org/2000/svg" width="15.048" height="15" viewBox="0 0 15.048 15">
  <g id="Group_163" data-name="Group 163" transform="translate(-111 -625)">
    <g id="Group_69" data-name="Group 69" transform="translate(5 -26)">
      <g id="Group_41" data-name="Group 41" transform="translate(116.596 661.579)">
        <g id="Group_40" data-name="Group 40">
          <path id="Path_43" data-name="Path 43" d="M363.236,360.766a.221.221,0,0,0-.241.048l-2.414,2.414a.221.221,0,0,0,.156.377h2.414a.221.221,0,0,0,.221-.221V360.97A.221.221,0,0,0,363.236,360.766Zm-1.965,2.4,1.66-1.66v1.66Z" transform="translate(-360.517 -360.749)"/>
        </g>
      </g>
      <g id="Group_43" data-name="Group 43" transform="translate(106 651)">
        <g id="Group_42" data-name="Group 42" transform="translate(0 0)">
          <path id="Path_44" data-name="Path 44" d="M14.912,7.875a.221.221,0,0,0-.241.048l-.662.662v-4.5a.221.221,0,0,0-.221-.221h-1.7l.616-.616h0l.594-.594a.674.674,0,0,0,0-.952l-.686-.686a.674.674,0,0,0-.952,0l-.594.594-.718.718L8.814,3.866H1.958V1.681a.221.221,0,0,0-.221-.221A1.739,1.739,0,0,0,0,3.2v9.381a.221.221,0,0,0,.005.047,1.673,1.673,0,0,0,1.668,1.546H8.422L7.151,15.443a.221.221,0,0,0,.156.377h7.52a.221.221,0,0,0,.221-.221V8.079A.221.221,0,0,0,14.912,7.875ZM11.975,1.33a.232.232,0,0,1,.328,0l.686.686a.232.232,0,0,1,0,.328l-.438.438L11.537,1.767Zm-.75.75,1.014,1.014-.405.405L10.82,2.485Zm3.381,8.481H14.2a.221.221,0,0,0,0,.442h.408v.666H14.2a.221.221,0,1,0,0,.442h.408v.666H14.2a.221.221,0,1,0,0,.442h.408v.666H14.2a.221.221,0,0,0,0,.442h.408v1.053H7.841l2.231-2.231a.221.221,0,0,0-.312-.312l-.9.9H1.673a1.224,1.224,0,0,1-1.23-1.192q0-.063.01-.125h0q0-.029.009-.058v-.007q0-.026.01-.052l0-.014q.005-.022.011-.043l.007-.023.01-.034.011-.033.008-.023.017-.043.005-.012c.008-.018.015-.035.024-.052v0a1.3,1.3,0,0,1,.9-.707h0l.055-.01.009,0,.051-.006.014,0,.049,0h.016l.065,0a.221.221,0,0,0,.221-.221v-1.6a.221.221,0,0,0-.442,0v1.395a1.725,1.725,0,0,0-.992.48c-.029.028-.056.057-.082.087V3.2A1.3,1.3,0,0,1,1.516,1.921V8.577h0a.221.221,0,0,0,.442,0h0V4.308H8.372L7.151,5.529a.221.221,0,0,0,.312.312l1.6-1.6h0L10.507,2.8l1.014,1.014L11.4,3.93h0L6.949,8.384,5.935,7.37l.878-.878A.221.221,0,0,0,6.5,6.18L5.466,7.214l-.016.017,0,.006-.009.013,0,.008-.007.013,0,.008-.005.013,0,0-.43,1.219-.293.831a.223.223,0,0,0-.009.034H3.947a.221.221,0,0,0,0,.442h6.117a.221.221,0,1,0,0-.442H5.675L7.022,8.9h0L7.041,8.9l.006,0,.016-.009,0,0,.016-.011,0,0L7.1,8.853,11.65,4.308h1.918V9.026l-3.159,3.159a.221.221,0,0,0,0,.312l.017.015a.221.221,0,0,0,.279,0l.017-.015h0l3.886-3.886ZM6.545,8.605l-.633.223-.422-.422.223-.633Z" transform="translate(0 -0.82)"/>
        </g>
      </g>
    </g>
  </g>
</svg>
