<svg xmlns="http://www.w3.org/2000/svg" width="10.051" height="10" viewBox="0 0 10.051 10"><g transform="translate(0 -0.261)"><path d="M9.276,44.473a.25.25,0,0,0-.25.25v2.222a.752.752,0,0,1-.751.751H1.252A.752.752,0,0,1,.5,46.946V40.423a.752.752,0,0,1,.751-.751H3.474a.25.25,0,1,0,0-.5H1.252A1.253,1.253,0,0,0,0,40.423v6.523A1.253,1.253,0,0,0,1.252,48.2H8.275a1.253,1.253,0,0,0,1.252-1.252V44.724A.25.25,0,0,0,9.276,44.473Zm0,0" transform="translate(0 -37.937)" fill="#313032"/><path d="M114.909.591a1.126,1.126,0,0,0-1.593,0L108.85,5.056a.25.25,0,0,0-.064.11l-.587,2.12a.25.25,0,0,0,.308.308l2.12-.587a.25.25,0,0,0,.11-.064L115.2,2.477a1.128,1.128,0,0,0,0-1.593ZM109.4,5.219l3.655-3.655,1.179,1.179L110.574,6.4Zm-.235.472.942.942-1.3.361Zm5.688-3.568-.265.265L113.4,1.21l.266-.265a.626.626,0,0,1,.885,0l.294.294A.627.627,0,0,1,114.849,2.123Zm0,0" transform="translate(-105.482)" fill="#313032"/></g></svg>