<svg xmlns="http://www.w3.org/2000/svg" width="15.963" height="17.846" viewBox="0 0 15.963 17.846"><g transform="translate(-27.005 0)"><g transform="translate(27.005 0)"><g transform="translate(0 0)"><path d="M42.619,8.575H40.04V.349a.349.349,0,0,0-.6-.246l-.987.987L37.47.1a.349.349,0,0,0-.493,0l-.987.987L35,.1a.349.349,0,0,0-.493,0l-.987.987L32.535.1a.349.349,0,0,0-.493,0l-.987.987L30.067.1a.349.349,0,0,0-.493,0l-.987.987L27.6.1A.348.348,0,0,0,27,.358V16.034a1.814,1.814,0,0,0,1.812,1.812H41.156a1.814,1.814,0,0,0,1.812-1.812V8.923A.349.349,0,0,0,42.619,8.575Zm-13.8,8.574A1.117,1.117,0,0,1,27.7,16.034V1.191l.638.638a.349.349,0,0,0,.493,0l.987-.987.987.987a.349.349,0,0,0,.493,0l.987-.987.987.987a.349.349,0,0,0,.493,0l.987-.987.987.987a.349.349,0,0,0,.493,0l.987-.987.987.987a.349.349,0,0,0,.493,0l.639-.639V8.923s0,.006,0,.009v7.1a1.8,1.8,0,0,0,.385,1.115Zm13.454-1.115a1.115,1.115,0,0,1-2.231,0V9.272h2.231Z" transform="translate(-27.005 0)" fill="#313032"/></g></g><g transform="translate(32.198 3.225)"><g transform="translate(0)"><path d="M177.32,94.825a.544.544,0,1,1,.627-.537.349.349,0,0,0,.7,0,1.254,1.254,0,0,0-.976-1.191v-.236a.349.349,0,0,0-.7,0V93.1A1.254,1.254,0,0,0,176,94.288a1.283,1.283,0,0,0,1.324,1.234.544.544,0,1,1-.627.537.349.349,0,1,0-.7,0,1.254,1.254,0,0,0,.976,1.191v.284a.349.349,0,0,0,.7,0V97.25a1.254,1.254,0,0,0,.976-1.191A1.283,1.283,0,0,0,177.32,94.825Z" transform="translate(-175.996 -92.513)" fill="#313032"/></g></g><g transform="translate(35.996 5.537)"><path d="M286,158.856h-.679a.349.349,0,0,0,0,.7H286a.349.349,0,0,0,0-.7Z" transform="translate(-284.971 -158.856)" fill="#313032"/></g><g transform="translate(29.672 5.537)"><g transform="translate(0)"><path d="M104.558,158.856h-.679a.349.349,0,1,0,0,.7h.679a.349.349,0,1,0,0-.7Z" transform="translate(-103.53 -158.856)" fill="#313032"/></g></g><g transform="translate(31.33 9.411)"><g transform="translate(0)"><path d="M156.967,270.007h-5.522a.349.349,0,1,0,0,.7h5.522a.349.349,0,1,0,0-.7Z" transform="translate(-151.097 -270.007)" fill="#313032"/></g></g><g transform="translate(29.496 9.411)"><g transform="translate(0)"><path d="M99.063,270.109a.348.348,0,1,0,.1.246A.351.351,0,0,0,99.063,270.109Z" transform="translate(-98.468 -270.007)" fill="#313032"/></g></g><g transform="translate(31.33 11.712)"><g transform="translate(0)"><path d="M156.967,336h-5.522a.349.349,0,0,0,0,.7h5.522a.349.349,0,0,0,0-.7Z" transform="translate(-151.097 -336.005)" fill="#313032"/></g></g><g transform="translate(29.496 11.712)"><g transform="translate(0)"><path d="M99.063,336.107a.348.348,0,1,0,.1.246A.351.351,0,0,0,99.063,336.107Z" transform="translate(-98.468 -336.005)" fill="#313032"/></g></g><g transform="translate(31.33 14.012)"><g transform="translate(0)"><path d="M156.967,402h-5.522a.349.349,0,0,0,0,.7h5.522a.349.349,0,0,0,0-.7Z" transform="translate(-151.097 -402.003)" fill="#313032"/></g></g><g transform="translate(29.496 14.012)"><g transform="translate(0)"><path d="M99.063,402.105a.348.348,0,1,0,.1.246A.351.351,0,0,0,99.063,402.105Z" transform="translate(-98.468 -402.003)" fill="#313032"/></g></g></g></svg>