<?xml version="1.0" encoding="utf-8"?>
<!-- Generator: Adobe Illustrator 23.0.3, SVG Export Plug-In . SVG Version: 6.00 Build 0)  -->
<svg version="1.1" id="Layer_1" xmlns="http://www.w3.org/2000/svg" xmlns:xlink="http://www.w3.org/1999/xlink" x="0px" y="0px"
	 viewBox="0 0 160.8 33" style="enable-background:new 0 0 160.8 33;" xml:space="preserve">
<style type="text/css">
	.st0{fill:#F5333F;}
	.st1{fill:#00A7E1;}
</style>
<g>
	<path class="st0" d="M35.7,18.1h6.1v-0.2c0-1.5-0.2-2.3-0.6-3.1c-0.5-0.8-1.3-1.2-2.3-1.2C36.9,13.6,35.7,15.2,35.7,18.1L35.7,18.1
		 M45.1,25l2.1,3.2c-2.3,1.9-4.8,2.8-7.6,2.8c-5.8,0-9.6-4.1-9.6-10.5c0-3.6,0.8-6.1,2.5-8c1.7-1.9,3.7-2.7,6.4-2.7
		c2.3,0,4.6,0.8,5.9,2.1c1.9,1.9,2.7,4.6,2.7,8.9c0,0.4,0,0.6,0,1.2H35.6v0.2c0,3.1,1.5,4.9,4.3,4.9C41.7,27,43.4,26.4,45.1,25z"/>
	<path class="st0" d="M151.9,10h6.4l-6.3,8.7l7.8,11.7h-6.3l-6.8-11.5L151.9,10 M141.3,30.4v-29h5.3v29H141.3z"/>
	<path class="st0" d="M114.7,28.9c-0.3,0.4-0.5,0.8-1.6,1.3c-0.6,0.3-1.7,0.7-3,0.7c-4.5,0-6.8-2.1-6.8-6.2c0-4.8,3.3-7,9.8-7
		c0.4,0,0.6,0,1.2,0V17c0-2.3-0.4-3-2.4-3c-1.7,0-3.7,0.8-5.9,2.3l-2.3-3.8c1.3-0.8,1.9-1.1,3.3-1.7c2-0.8,3.7-1.2,5.5-1.2
		c3.4,0,5.7,1.3,6.5,3.5c0.3,0.8,0.4,1.5,0.4,3.6l-0.1,6.8c0,0.1,0,2.6,0,2.6c0,1.7,0.1,3.4,0.5,4.3h-4.7
		C115,30.1,114.7,28.9,114.7,28.9 M114.2,21.3H114c-3.7,0-5,0.7-5,3.1c0,1.6,1,2.7,2.3,2.7c1,0,2-0.5,2.8-1.4L114.2,21.3z"/>
	<path class="st0" d="M22.4,30.4V17c0-2.4-0.3-2.9-1.7-2.9c-1,0-2.4,0.7-3.5,1.7v14.6h-5V17.2c0-2.5-0.4-3.1-1.8-3.1
		c-1,0-2.3,0.5-3.5,1.5v14.7H1.7V16.3c0-2.9-0.2-4.2-0.7-5.2l4.8-1.3c0.4,0.6,0.5,1,0.7,2.1c1.4-1.3,3.1-2.1,4.9-2.1
		c1.7,0,3,0.6,4.1,1.7c0.3,0.3,0.6,0.6,0.8,1c1.9-1.9,3.5-2.6,5.7-2.6c1.6,0,3.1,0.5,4,1.3c1.1,1,1.5,2.2,1.5,4.9v14.4H22.4"/>
	<path class="st1" d="M75.6,1c1.9,0,3.3,1.5,3.3,3.4c0,1.9-1.5,3.4-3.3,3.4c-1.9,0-3.4-1.5-3.4-3.4C72.2,2.5,73.7,1,75.6,1 M73.7,14
		c0-0.8-0.4-1.3-0.8-1.3c-1.1,0-2,1.6-3.3,4.8l-1.7-0.7c1.9-4.8,3.9-7.1,6.9-7.1c2.8,0,4.5,2.1,4.5,5.7c0,1.4-0.3,2.9-0.8,4.7
		l-1,3.8c-0.3,1.2-0.4,2.1-0.4,2.6c0,1,0.4,1.5,1.1,1.5c1.2,0,2.3-1.7,3.4-5.1l1.6,0.8c-1.3,5-3.6,7.4-6.8,7.4c-3.1,0-4.9-2-4.9-5.5
		c0-1.9,0.6-3.9,1.1-6.4l0.8-3.1C73.6,15.1,73.7,14.4,73.7,14z"/>
	<path class="st0" d="M121.6,11.1l4.8-1.3c0.3,0.4,0.7,1.5,0.7,2.3c1.2-0.9,1.5-1,2.3-1.5c1.1-0.6,2.5-0.9,3.6-0.9
		c2.3,0,4.2,1.2,4.9,2.9c0.3,0.8,0.4,1.6,0.4,2.9v14.8h-5.2V17.2c0-2.3-0.4-3-1.8-3c-1.1,0-2.5,0.7-3.7,1.8v14.3h-5.3V15.7
		C122.4,12.6,121.9,11.6,121.6,11.1"/>
	<path class="st0" d="M61.4,15.5c-1-0.9-1.9-1.3-2.9-1.3c-2.4,0-3.4,2-3.4,6.5c0,4.4,0.9,5.8,3.7,5.8c1,0,2.1-0.7,2.6-1.3V15.5
		 M62.5,30.4c-0.2-0.5-0.4-1.3-0.4-1.3c-1.2,0.9-3,1.8-4.5,1.8c-5.2,0-8.4-4-8.4-10.3c0-6.3,3.5-10.7,8.7-10.7
		c1.5,0,2.6,0.4,3.6,1.1V1.4h5.1v29H62.5z"/>
	<path class="st0" d="M95.8,16.6c-0.4-1.7-1.5-2.6-2.9-2.6c-1.4,0-2.3,0.9-3,1.6V25c0.7,0.6,1.5,1.3,3,1.3c1.3,0,2.1-0.5,2.6-1.6
		c0.5-1.1,0.6-2.2,0.6-4.7C96,18.2,96,17.4,95.8,16.6 M89.7,1.4v9.8c1-1.1,2.6-1.6,4.3-1.6c5,0,8,4,8,10.3c0,4.1-1.3,7.3-3.8,9.3
		c-1.4,1.1-2.8,1.6-4.4,1.6c-1.9,0-3.3-0.5-4.5-1.8c0,0-0.1,0.7-0.3,1.4h-4.5l0-7.4V1.4H89.7z"/>
</g>
</svg>
