<svg xmlns="http://www.w3.org/2000/svg" width="26.786" height="25" viewBox="0 0 26.786 25"><g transform="translate(0 -2)"><path d="M26.786,3.077A1.078,1.078,0,0,0,25.709,2H1.077A1.078,1.078,0,0,0,0,3.077V8.25H1.339V25.031A1.971,1.971,0,0,0,3.308,27h20.17a1.971,1.971,0,0,0,1.969-1.969V8.25h1.339ZM3.308,26.107a1.077,1.077,0,0,1-1.076-1.076V22.561a4.025,4.025,0,0,1,3.546,3.546Zm21.246-1.076a1.077,1.077,0,0,1-1.076,1.076H21.007a4.025,4.025,0,0,1,3.546-3.546Zm0-3.366a4.915,4.915,0,0,0-4.442,4.442H6.674a4.915,4.915,0,0,0-4.442-4.442V8.25H24.554ZM25.893,7.357h-25V3.077a.184.184,0,0,1,.184-.184H25.709a.184.184,0,0,1,.184.184Z"/><circle cx="0.446" cy="0.446" r="0.446" transform="translate(3.571 4.679)"/><circle cx="0.446" cy="0.446" r="0.446" transform="translate(2.232 3.339)"/><circle cx="0.446" cy="0.446" r="0.446" transform="translate(4.911 3.339)"/><circle cx="0.446" cy="0.446" r="0.446" transform="translate(2.232 6.018)"/><circle cx="0.446" cy="0.446" r="0.446" transform="translate(4.911 6.018)"/><circle cx="0.446" cy="0.446" r="0.446" transform="translate(6.25 4.679)"/><circle cx="0.446" cy="0.446" r="0.446" transform="translate(8.929 4.679)"/><circle cx="0.446" cy="0.446" r="0.446" transform="translate(7.589 3.339)"/><circle cx="0.446" cy="0.446" r="0.446" transform="translate(10.268 3.339)"/><circle cx="0.446" cy="0.446" r="0.446" transform="translate(7.589 6.018)"/><circle cx="0.446" cy="0.446" r="0.446" transform="translate(10.268 6.018)"/><circle cx="0.446" cy="0.446" r="0.446" transform="translate(11.607 4.679)"/><circle cx="0.446" cy="0.446" r="0.446" transform="translate(14.286 4.679)"/><circle cx="0.446" cy="0.446" r="0.446" transform="translate(12.946 3.339)"/><circle cx="0.446" cy="0.446" r="0.446" transform="translate(15.625 3.339)"/><circle cx="0.446" cy="0.446" r="0.446" transform="translate(12.946 6.018)"/><circle cx="0.446" cy="0.446" r="0.446" transform="translate(15.625 6.018)"/><circle cx="0.446" cy="0.446" r="0.446" transform="translate(16.964 4.679)"/><circle cx="0.446" cy="0.446" r="0.446" transform="translate(19.643 4.679)"/><circle cx="0.446" cy="0.446" r="0.446" transform="translate(18.304 3.339)"/><circle cx="0.446" cy="0.446" r="0.446" transform="translate(20.982 3.339)"/><circle cx="0.446" cy="0.446" r="0.446" transform="translate(18.304 6.018)"/><circle cx="0.446" cy="0.446" r="0.446" transform="translate(20.982 6.018)"/><circle cx="0.446" cy="0.446" r="0.446" transform="translate(22.321 4.679)"/><circle cx="0.446" cy="0.446" r="0.446" transform="translate(23.661 3.339)"/><circle cx="0.446" cy="0.446" r="0.446" transform="translate(23.661 6.018)"/><path d="M22.565,27.679h4.906a1.566,1.566,0,0,0,1.565-1.565v-.667a.446.446,0,1,0-.893,0v.667a.673.673,0,0,1-.672.672H22.565a.673.673,0,0,1-.672-.672v-.667a.446.446,0,1,0-.893,0v.667A1.566,1.566,0,0,0,22.565,27.679Z" transform="translate(-11.625 -12.732)"/></g></svg>