<?xml version="1.0" encoding="utf-8"?>
<!-- Generator: Adobe Illustrator 23.0.3, SVG Export Plug-In . SVG Version: 6.00 Build 0)  -->
<svg version="1.1" id="Layer_1" xmlns="http://www.w3.org/2000/svg" xmlns:xlink="http://www.w3.org/1999/xlink" x="0px" y="0px"
	 viewBox="0 0 83.6 33.4" style="enable-background:new 0 0 83.6 33.4;" xml:space="preserve">
<style type="text/css">
	.st0{fill:#070606;}
	.st1{fill:#C40905;}
	.st2{clip-path:url(#SVGID_2_);}
	.st3{clip-path:url(#SVGID_4_);}
	.st4{clip-path:url(#SVGID_6_);}
	.st5{fill:url(#SVGID_7_);}
</style>
<path class="st0" d="M41.3,11.8L41,10.3l-4.3,0.2v2.2l1.2,0.1v11.7h4V15c1.2-1.2,1.9-1.8,3.2-1.8s2,1,2,3.1v8.3h4v-9
	c0-3.8-1.8-5.7-5.2-5.7C44.2,9.8,42.5,10.5,41.3,11.8z"/>
<path class="st0" d="M76.1,13.3c1.6,0,2.4,1.4,2.4,4.1c0,2-0.6,4.3-3.4,4.3c-0.8,0-1.6-0.2-2.3-0.5v-6.1
	C73.5,14.1,74.7,13.4,76.1,13.3z M67.5,5v2.2L69,7.4C69,7.8,69,24,69,24c1.9,0.6,3.9,0.9,5.9,0.9c4.9,0,7.7-2.9,7.7-8
	c0-4.3-2.2-7-5.8-7c-1.5,0-2.9,0.5-4,1.5V4.8L67.5,5z"/>
<path class="st0" d="M54.2,10.8L54,10.9l0.7,3l0.3-0.1c1.3-0.5,2.6-0.8,4-0.8c2.2,0,2.6,0.8,2.6,2.3v0.5h-1.5
	c-4.8,0-7.2,1.6-7.2,4.7c0,2.8,1.9,4.5,5,4.5c1.5,0,3-0.5,4.2-1.5c0.1,0.4,0.2,1.1,0.2,1.1l4.4-0.1v-2.2l-1.3-0.1V15
	c0-3.4-2-5.1-6-5.1C57.7,9.9,55.9,10.2,54.2,10.8z M57,20.3c0-0.8,0.3-1.8,3.2-1.8h1.5v2.2c-0.7,0.8-1.7,1.2-2.8,1.3
	c-0.9,0.1-1.7-0.4-1.8-1.3C57,20.5,57,20.4,57,20.3z"/>
<path class="st1" d="M20.4,1.2l-5.2,6.4L7.7,4C7.5,3.8,7.3,3.8,7.1,4C7,4.1,7,4.3,7.1,4.5l1.7,8.1l-7.5,3.6c-0.2,0-0.4,0.2-0.3,0.5
	c0,0.2,0.2,0.3,0.3,0.3l7.5,3.7L7,28.7c-0.1,0.2,0,0.4,0.1,0.5c0.1,0.1,0.3,0.1,0.5,0l7.5-3.5l5.2,6.5c0.1,0.2,0.3,0.3,0.5,0.2
	c0.2-0.1,0.3-0.2,0.2-0.4l1.9-8h8.3c0.2,0.1,0.4,0,0.5-0.3c0.1-0.2,0-0.4-0.2-0.5l-5.1-6.5l5.2-6.5c0.2-0.1,0.2-0.4,0.1-0.6
	c-0.1-0.1-0.3-0.2-0.4-0.2h-2.1c-0.1,0-0.3,0.1-0.4,0.2L21,18c-0.1,0.1-0.1,0.1-0.2,0.1s0-0.1,0-0.2l6.7-8.1c0-0.1,0-0.1,0-0.2
	c0-0.1-0.1-0.1-0.2-0.1h-2.7c-0.2,0-0.4,0.1-0.6,0.3c-1.3,1.4-7.6,8.1-7.7,8.2s-0.1,0.1-0.2,0.1s0-0.1,0-0.2l6.5-8
	c0.1-0.1,0.2-0.3,0.2-0.5c0-0.1-1.8-8-1.8-8.1c0-0.2-0.2-0.4-0.5-0.3C20.6,1,20.5,1.1,20.4,1.2z"/>
<g>
	<defs>
		<path id="SVGID_1_" d="M30.5,10.1h-1.4c-0.3,0-0.5,0.1-0.7,0.3L21.2,18c-0.5,0.6-0.9,0.2-0.4-0.4c0.2-0.2,3.7-4.4,5.8-7.1
			c0.1-0.1,0.2-0.4-0.1-0.4h-2.1c-0.2,0-0.4,0.1-0.5,0.2L16.6,18c-0.5,0.5-1,0.2-0.5-0.4c0.2-0.2,4-4.9,6.1-7.6
			c0.2-0.2,0.2-0.4,0.2-0.7l-1.6-7.1c0-0.2-0.2-0.3-0.4-0.1L15.7,8c-0.2,0.2-0.5,0.3-0.7,0.2L8.2,4.8C8,4.7,7.8,4.8,7.9,5.1l1.6,7.4
			c0,0.3-0.1,0.5-0.3,0.6l-6.8,3.2c-0.2,0.1-0.2,0.3,0,0.4L9.1,20c0.2,0.1,0.3,0.4,0.3,0.6L7.7,28c0,0.3,0.1,0.4,0.3,0.3l6.8-3.2
			c0.2-0.1,0.5,0,0.7,0.2l4.7,5.9c0.2,0.2,0.3,0.2,0.4-0.1l1.8-7.3c0.1-0.3,0.3-0.4,0.6-0.5h7.5c0.2,0,0.3-0.2,0.2-0.3L25.9,17
			c-0.2-0.2-0.2-0.5,0-0.7l4.7-5.9C30.8,10.3,30.8,10.1,30.5,10.1z"/>
	</defs>
	<clipPath id="SVGID_2_">
		<use xlink:href="#SVGID_1_"  style="overflow:visible;"/>
	</clipPath>
	<g class="st2">
		<g>
			<defs>
				<rect id="SVGID_3_" x="2.1" y="2" width="28.6" height="29.2"/>
			</defs>
			<clipPath id="SVGID_4_">
				<use xlink:href="#SVGID_3_"  style="overflow:visible;"/>
			</clipPath>
			<g class="st3">
				<g>
					<defs>
						<rect id="SVGID_5_" x="2" y="2.2" width="28.6" height="29.2"/>
					</defs>
					<clipPath id="SVGID_6_">
						<use xlink:href="#SVGID_5_"  style="overflow:visible;"/>
					</clipPath>
					<g class="st4">
						
							<radialGradient id="SVGID_7_" cx="360.3914" cy="10.5913" r="1" gradientTransform="matrix(25.87 0 0 25.87 -9303.5801 -247.03)" gradientUnits="userSpaceOnUse">
							<stop  offset="0" style="stop-color:#C40804"/>
							<stop  offset="0.48" style="stop-color:#C40804"/>
							<stop  offset="1" style="stop-color:#D3532A"/>
						</radialGradient>
						<rect x="2" y="2.2" class="st5" width="28.6" height="29.2"/>
					</g>
				</g>
			</g>
		</g>
	</g>
</g>
</svg>
