<svg xmlns="http://www.w3.org/2000/svg" width="19.092" height="17.846" viewBox="0 0 19.092 17.846"><g transform="translate(0 -1.955)"><path d="M18.994,8.789a.4.4,0,0,0-.308-.141h-.841V4.112a.564.564,0,0,0-.563-.563H7.51l-.792-1.32a.566.566,0,0,0-.483-.274h-4.4a.564.564,0,0,0-.563.563V8.647H.4a.4.4,0,0,0-.4.466L1.571,19.457a.4.4,0,0,0,.4.344H17.119a.4.4,0,0,0,.4-.344L19.087,9.114A.4.4,0,0,0,18.994,8.789ZM1.912,2.593H6.193l.792,1.32a.566.566,0,0,0,.483.274h9.74V8.647h-.319V7.373h-.319V6.417h-.319V5.461H2.868v.956H2.549v.956H2.23V8.647H1.912ZM2.868,8.01H16.252v.637H2.868Zm.319-.956H15.933v.319H3.186Zm12.428-.637H3.505V6.1h12.11ZM16.92,19.164H2.171L.675,9.285H18.417Z" transform="translate(0)" fill="#313032"/><path d="M26.956,41.417h6.692V36.956H26.956v4.461Zm.637-3.824h5.417V40.78H27.593V37.593Z" transform="translate(-18.366 -23.847)" fill="#313032"/><path d="M31.275,41.593h1.275a.319.319,0,0,0,0-.637H31.275a.319.319,0,0,0,0,.637Z" transform="translate(-21.091 -26.572)" fill="#313032"/><path d="M39.275,41.593h.319a.319.319,0,1,0,0-.637h-.319a.319.319,0,0,0,0,.637Z" transform="translate(-26.542 -26.572)" fill="#313032"/><path d="M34.78,44.956H31.275a.319.319,0,1,0,0,.637H34.78a.319.319,0,0,0,0-.637Z" transform="translate(-21.091 -29.298)" fill="#313032"/></g></svg>