<?xml version="1.0" encoding="utf-8"?>
<!-- Generator: Adobe Illustrator 23.0.2, SVG Export Plug-In . SVG Version: 6.00 Build 0)  -->
<svg version="1.1" id="Layer_1" xmlns="http://www.w3.org/2000/svg" xmlns:xlink="http://www.w3.org/1999/xlink" x="0px" y="0px"
	 viewBox="0 0 15 15" style="enable-background:new 0 0 15 15;" xml:space="preserve">
<style type="text/css">
	.st0{fill:#313032;}
</style>
<path class="st0" d="M14.6,7.7c-0.2-0.3-0.6-0.5-1-0.5h0v-4c0,0,0,0,0,0c0,0,0,0,0-0.1c0,0,0,0,0,0c0,0,0-0.1,0-0.1l-3-3
	c0,0,0,0-0.1-0.1c0,0,0,0,0,0c0,0,0,0-0.1,0c0,0,0,0,0,0H3.9C3.2,0,2.6,0.6,2.6,1.2V3H1.4C0.7,3,0.1,3.6,0.1,4.2v10.5h0
	c0,0.1,0,0.1,0.1,0.2C0.2,15,0.3,15,0.4,15h13c0.1,0,0.2-0.1,0.2-0.2l1.3-6C14.9,8.4,14.8,8,14.6,7.7z M12.8,3h-1.9
	c-0.1,0-0.2-0.1-0.2-0.2V0.9L12.8,3z M3.1,1.2c0-0.4,0.3-0.8,0.8-0.8h6.2v2.2c0,0.4,0.3,0.8,0.8,0.8h2.2v3.8h-10V1.2z M1.4,3.5h1.2
	v3.8H2.2C1.6,7.3,1.1,7.7,1,8.3l-0.4,2.8V4.2C0.6,3.8,0.9,3.5,1.4,3.5z M14.4,8.7l-1.2,5.8H0.6l0.8-6.1C1.5,8,1.9,7.8,2.2,7.8h11.4
	c0.2,0,0.4,0.1,0.6,0.3C14.4,8.2,14.4,8.4,14.4,8.7L14.4,8.7z M6.4,3c0.1,0,0.2,0.1,0.2,0.2h0.5c0-0.3-0.2-0.6-0.5-0.7V2.2H6.1v0.3
	C5.8,2.7,5.6,2.9,5.6,3.2C5.6,3.7,6,3.8,6.2,4c0.2,0.1,0.4,0.2,0.4,0.3c0,0.1-0.1,0.2-0.2,0.2S6.1,4.4,6.1,4.2H5.6
	c0,0.3,0.2,0.6,0.5,0.7v0.3h0.5V5c0.3-0.1,0.5-0.4,0.5-0.7c0-0.4-0.4-0.6-0.6-0.7C6.3,3.4,6.1,3.3,6.1,3.2C6.1,3.1,6.2,3,6.4,3z
	 M6.4,1.5c-1.2,0-2.2,1-2.2,2.2S5.1,6,6.4,6s2.2-1,2.2-2.2C8.6,2.5,7.6,1.5,6.4,1.5z M6.4,5.5c-1,0-1.8-0.8-1.8-1.8S5.4,2,6.4,2
	s1.7,0.8,1.7,1.8C8.1,4.7,7.3,5.5,6.4,5.5z M9.1,5.5h0.5V6H9.1V5.5z M10.1,5.5h2V6h-2V5.5z M9.1,4.5h1.5V5H9.1V4.5z M11.1,4.5h1V5
	h-1V4.5z"/>
</svg>
