<svg xmlns="http://www.w3.org/2000/svg" width="15.5" height="15" viewBox="0 0 15.5 15">
  <g id="Group_80" data-name="Group 80" transform="translate(-844 -613)">
    <path id="Path_69" data-name="Path 69" d="M264.941,623.512h3.25v.5h-3.25Zm0,0" transform="translate(583.309 -0.512)"/>
    <path id="Path_70" data-name="Path 70" d="M264.941,685.852h1.75v.5h-1.75Zm0,0" transform="translate(583.309 -61.852)"/>
    <path id="Path_71" data-name="Path 71" d="M405.2,685.852h1v.5h-1Zm0,0" transform="translate(445.297 -61.852)"/>
    <path id="Path_53" data-name="Path 53" d="M1.25,13.625h6.5v-.5H1.25a.75.75,0,0,1-.75-.75v-11a.75.75,0,0,1,.75-.75h11a.75.75,0,0,1,.75.75v5.75h.5V1.375A1.251,1.251,0,0,0,12.25.125h-11A1.252,1.252,0,0,0,0,1.375v11A1.252,1.252,0,0,0,1.25,13.625Zm0,0" transform="translate(844 612.875)"/>
    <path id="Path_54" data-name="Path 54" d="M62.344,62.469h.5v.5h-.5Zm0,0" transform="translate(782.656 551.531)"/>
    <path id="Path_55" data-name="Path 55" d="M124.676,62.469h.5v.5h-.5Zm0,0" transform="translate(721.324 551.531)"/>
    <path id="Path_56" data-name="Path 56" d="M187.016,62.469h.5v.5h-.5Zm0,0" transform="translate(659.984 551.531)"/>
    <path id="Path_57" data-name="Path 57" d="M62.344,124.8h11.5v.5h-11.5Zm0,0" transform="translate(782.656 490.199)"/>
    <path id="Path_58" data-name="Path 58" d="M64.454,191.707l-.635.635a1.254,1.254,0,1,0,.353.354l.635-.635Zm-1.323,2.427a.75.75,0,1,1,0-1.5.736.736,0,0,1,.321.075l-.5.5.353.354.5-.5a.736.736,0,0,1,.075.321A.75.75,0,0,1,63.131,194.134Zm0,0" transform="translate(783.119 424.366)"/>
    <path id="Path_59" data-name="Path 59" d="M264.941,249.484h4.25v.5h-4.25Zm0,0" transform="translate(583.309 367.516)"/>
    <path id="Path_60" data-name="Path 60" d="M264.941,311.82h1.75v.5h-1.75Zm0,0" transform="translate(583.309 306.18)"/>
    <path id="Path_61" data-name="Path 61" d="M405.2,311.82h3.5v.5h-3.5Zm0,0" transform="translate(445.297 306.18)"/>
    <path id="Path_62" data-name="Path 62" d="M561.047,249.484h2.5v.5h-2.5Zm0,0" transform="translate(291.953 367.516)"/>
    <path id="Path_63" data-name="Path 63" d="M64.454,378.723l-.635.635a1.254,1.254,0,1,0,.353.354l.635-.635Zm-1.323,2.427a.75.75,0,0,1,0-1.5.738.738,0,0,1,.321.075l-.5.5.353.353.5-.5a.736.736,0,0,1,.075.321A.75.75,0,0,1,63.131,381.149Zm0,0" transform="translate(783.119 240.351)"/>
    <path id="Path_64" data-name="Path 64" d="M264.941,436.492h4.25v.5h-4.25Zm0,0" transform="translate(583.309 183.508)"/>
    <path id="Path_65" data-name="Path 65" d="M264.941,498.836h1.75v.5h-1.75Zm0,0" transform="translate(583.309 122.164)"/>
    <path id="Path_66" data-name="Path 66" d="M405.2,498.836h2v.5h-2Zm0,0" transform="translate(445.297 122.164)"/>
    <path id="Path_67" data-name="Path 67" d="M561.047,436.492h1v.5h-1Zm0,0" transform="translate(291.953 183.508)"/>
    <path id="Path_68" data-name="Path 68" d="M64.454,565.738l-.635.635a1.254,1.254,0,1,0,.353.353l.635-.635Zm-1.323,2.427a.75.75,0,0,1,0-1.5.735.735,0,0,1,.321.075l-.5.5.353.353.5-.5a.737.737,0,0,1,.075.321A.75.75,0,0,1,63.131,568.165Zm0,0" transform="translate(783.119 56.335)"/>
    <path id="Path_72" data-name="Path 72" d="M502.461,475.164a3.75,3.75,0,1,0-3.75-3.75A3.75,3.75,0,0,0,502.461,475.164Zm0-7a3.25,3.25,0,1,1-3.25,3.25A3.25,3.25,0,0,1,502.461,468.164Zm0,0" transform="translate(353.289 152.836)"/>
    <path id="Path_73" data-name="Path 73" d="M609.967,583.389l-.448.223.5,1a.25.25,0,0,0,.184.135l.039,0a.25.25,0,0,0,.177-.073l3-3-.353-.354-2.755,2.755Zm0,0" transform="translate(244.258 40.999)"/>
  </g>
</svg>
