<?xml version="1.0" encoding="utf-8"?>
<!-- Generator: Adobe Illustrator 23.0.2, SVG Export Plug-In . SVG Version: 6.00 Build 0)  -->
<svg version="1.1" id="Layer_1" xmlns="http://www.w3.org/2000/svg" xmlns:xlink="http://www.w3.org/1999/xlink" x="0px" y="0px"
	 viewBox="0 0 15 15" style="enable-background:new 0 0 15 15;" xml:space="preserve">
<style type="text/css">
	.st0{fill:#313032;}
</style>
<path class="st0" d="M14.8,8.4c-0.1-0.3-0.2-0.6-0.2-0.9c0-0.3,0.1-0.5,0.2-0.9c0.1-0.5,0.3-1,0.1-1.5c-0.2-0.5-0.6-0.8-1-1.2
	c-0.2-0.2-0.5-0.4-0.6-0.6C13.1,3.3,13,3,12.9,2.7c-0.2-0.5-0.4-1-0.8-1.3c-0.4-0.3-1-0.3-1.5-0.4C10.3,1.1,10,1,9.7,1
	C9.5,0.9,9.2,0.7,9,0.6C8.5,0.3,8.1,0,7.5,0S6.5,0.3,6,0.6C5.8,0.7,5.5,0.9,5.3,1C5,1,4.7,1.1,4.4,1.1c-0.5,0-1.1,0.1-1.5,0.4
	C2.5,1.7,2.3,2.2,2.1,2.7C2,3,1.9,3.3,1.7,3.5C1.6,3.7,1.3,3.8,1.1,4c-0.4,0.3-0.8,0.6-1,1.2c-0.2,0.5,0,1,0.1,1.5
	C0.3,7,0.4,7.2,0.4,7.5S0.3,8,0.2,8.4c-0.1,0.5-0.3,1-0.1,1.5c0.2,0.5,0.6,0.8,1,1.2c0.2,0.2,0.5,0.4,0.6,0.6
	C1.9,11.7,2,12,2.1,12.3c0.2,0.5,0.4,1,0.8,1.3c0.4,0.3,1,0.3,1.5,0.4c0.3,0,0.6,0,0.9,0.1c0.2,0.1,0.5,0.2,0.8,0.4
	C6.5,14.7,7,15,7.5,15s1-0.3,1.5-0.6c0.3-0.2,0.5-0.3,0.8-0.4c0.3-0.1,0.6-0.1,0.9-0.1c0.5,0,1.1-0.1,1.5-0.4
	c0.4-0.3,0.6-0.8,0.8-1.3c0.1-0.3,0.2-0.6,0.4-0.8c0.2-0.2,0.4-0.4,0.6-0.6c0.4-0.3,0.8-0.6,1-1.2C15.1,9.3,15,8.8,14.8,8.4z
	 M14.3,9.6c-0.1,0.3-0.4,0.6-0.8,0.8c-0.3,0.2-0.5,0.4-0.8,0.7c-0.2,0.3-0.3,0.6-0.5,0.9c-0.2,0.4-0.3,0.8-0.6,1
	c-0.3,0.2-0.7,0.2-1.1,0.2c-0.3,0-0.7,0-1,0.1c-0.3,0.1-0.6,0.3-0.9,0.5c-0.4,0.2-0.7,0.5-1.1,0.5c-0.4,0-0.7-0.2-1.1-0.5
	c-0.3-0.2-0.6-0.4-0.9-0.5c-0.3-0.1-0.7-0.1-1-0.1c-0.4,0-0.9,0-1.1-0.2c-0.3-0.2-0.4-0.6-0.6-1c-0.1-0.3-0.3-0.6-0.5-0.9
	c-0.2-0.3-0.5-0.5-0.8-0.7c-0.4-0.3-0.7-0.5-0.8-0.8c-0.1-0.3,0-0.7,0.1-1.1C0.9,8.2,1,7.9,1,7.5s-0.1-0.7-0.2-1
	C0.7,6.1,0.6,5.7,0.7,5.4c0.1-0.3,0.4-0.6,0.8-0.8C1.8,4.3,2,4.1,2.2,3.8c0.2-0.3,0.3-0.6,0.5-0.9C2.9,2.5,3,2.2,3.3,2
	C3.6,1.8,4,1.7,4.4,1.7c0.3,0,0.7,0,1-0.1c0.3-0.1,0.6-0.3,0.9-0.5c0.4-0.2,0.7-0.5,1.1-0.5s0.7,0.2,1.1,0.5
	c0.3,0.2,0.6,0.4,0.9,0.5c0.3,0.1,0.7,0.1,1,0.1c0.4,0,0.9,0,1.2,0.2c0.3,0.2,0.4,0.6,0.6,1c0.1,0.3,0.3,0.6,0.5,0.9
	c0.2,0.3,0.5,0.5,0.8,0.7c0.4,0.3,0.7,0.5,0.8,0.8c0.1,0.3,0,0.7-0.1,1.1c-0.1,0.3-0.2,0.7-0.2,1s0.1,0.7,0.2,1
	C14.3,8.9,14.4,9.3,14.3,9.6z M7.5,2.6c-2.7,0-4.9,2.2-4.9,4.9s2.2,4.9,4.9,4.9s4.9-2.2,4.9-4.9S10.2,2.6,7.5,2.6z M7.5,11.7
	c-2.3,0-4.2-1.9-4.2-4.2s1.9-4.2,4.2-4.2c1.2,0,2.3,0.5,3.1,1.3L7.5,9L5.8,7.3c-0.1-0.1-0.3-0.1-0.5,0c-0.1,0.1-0.1,0.3,0,0.5l2,2
	c0.1,0.1,0.1,0.1,0.2,0.1c0,0,0,0,0,0c0.1,0,0.2-0.1,0.2-0.1L11,5.1c0.5,0.7,0.7,1.5,0.7,2.4C11.7,9.8,9.8,11.7,7.5,11.7z"/>
</svg>
