<svg xmlns="http://www.w3.org/2000/svg" width="20" height="25" viewBox="0 0 20 25"><g transform="translate(-48)"><g transform="translate(48)"><path d="M65.917,0H50.083A2.086,2.086,0,0,0,48,2.083v11.25a2.086,2.086,0,0,0,2.083,2.083h5.7l-.6,2.083H53.833v.833h8.333V17.5H60.814l-.6-2.083h5.7A2.086,2.086,0,0,0,68,13.333V2.083A2.086,2.086,0,0,0,65.917,0ZM56.052,17.5l.6-2.083h2.7l.6,2.083Zm11.114-4.167a1.25,1.25,0,0,1-1.25,1.25H50.083a1.25,1.25,0,0,1-1.25-1.25V12.5H67.167Zm0-1.667H48.833V2.083a1.25,1.25,0,0,1,1.25-1.25H65.917a1.25,1.25,0,0,1,1.25,1.25Z" transform="translate(-48)" fill="#313032"/></g><g transform="translate(49.25 19.167)"><path d="M84.083,368H72.417a.417.417,0,0,0-.417.417v5a.417.417,0,0,0,.417.417H84.083a.417.417,0,0,0,.417-.417v-5A.417.417,0,0,0,84.083,368Zm-.417,5H72.833v-4.167H83.667Z" transform="translate(-72 -368)" fill="#313032"/></g><g transform="translate(50.917 22.5)"><g transform="translate(0)"><rect width="0.833" height="0.833" fill="#313032"/></g></g><g transform="translate(50.917 20.833)"><g transform="translate(0)"><rect width="0.833" height="0.833" fill="#313032"/></g></g><g transform="translate(52.583 20.833)"><g transform="translate(0)"><rect width="0.833" height="0.833" fill="#313032"/></g></g><g transform="translate(54.25 20.833)"><rect width="0.833" height="0.833" fill="#313032"/></g><g transform="translate(57.583 20.833)"><g transform="translate(0)"><rect width="0.833" height="0.833" fill="#313032"/></g></g><g transform="translate(55.917 20.833)"><rect width="0.833" height="0.833" fill="#313032"/></g><g transform="translate(59.25 22.5)"><rect width="0.833" height="0.833" fill="#313032"/></g><g transform="translate(59.25 20.833)"><rect width="0.833" height="0.833" fill="#313032"/></g><g transform="translate(52.583 22.5)"><g transform="translate(0)"><rect width="5.833" height="0.833" fill="#313032"/></g></g><g transform="translate(62.583 19.167)"><g transform="translate(0)"><path d="M330.083,368A2.083,2.083,0,0,0,328,370.083v1.667a2.083,2.083,0,1,0,4.167,0v-1.667A2.083,2.083,0,0,0,330.083,368Zm1.25,3.75a1.25,1.25,0,0,1-2.5,0v-1.667a1.25,1.25,0,0,1,2.5,0Z" transform="translate(-328 -368)" fill="#313032"/></g></g><g transform="translate(64.25 20.833)"><rect width="0.833" height="0.833" fill="#313032"/></g></g></svg>