<svg xmlns="http://www.w3.org/2000/svg" width="12" height="15" viewBox="0 0 12 15"><g transform="translate(-48)"><g transform="translate(48)"><path d="M58.75,0h-9.5A1.251,1.251,0,0,0,48,1.25V8a1.251,1.251,0,0,0,1.25,1.25h3.418l-.357,1.25H51.5V11h5v-.5h-.812l-.357-1.25H58.75A1.252,1.252,0,0,0,60,8V1.25A1.252,1.252,0,0,0,58.75,0ZM52.831,10.5l.357-1.25h1.623l.357,1.25ZM59.5,8a.75.75,0,0,1-.75.75h-9.5A.75.75,0,0,1,48.5,8V7.5h11Zm0-1h-11V1.25A.75.75,0,0,1,49.25.5h9.5a.75.75,0,0,1,.75.75Z" transform="translate(-48)" fill="#313032"/></g><g transform="translate(48.75 11.5)"><path d="M79.25,368h-7a.25.25,0,0,0-.25.25v3a.25.25,0,0,0,.25.25h7a.25.25,0,0,0,.25-.25v-3A.25.25,0,0,0,79.25,368ZM79,371H72.5v-2.5H79Z" transform="translate(-72 -368)" fill="#313032"/></g><g transform="translate(49.75 13.5)"><g transform="translate(0)"><rect width="0.5" height="0.5" fill="#313032"/></g></g><g transform="translate(49.75 12.5)"><g transform="translate(0)"><rect width="0.5" height="0.5" fill="#313032"/></g></g><g transform="translate(50.75 12.5)"><g transform="translate(0)"><rect width="0.5" height="0.5" fill="#313032"/></g></g><g transform="translate(51.75 12.5)"><rect width="0.5" height="0.5" fill="#313032"/></g><g transform="translate(53.75 12.5)"><g transform="translate(0)"><rect width="0.5" height="0.5" fill="#313032"/></g></g><g transform="translate(52.75 12.5)"><rect width="0.5" height="0.5" fill="#313032"/></g><g transform="translate(54.75 13.5)"><rect width="0.5" height="0.5" fill="#313032"/></g><g transform="translate(54.75 12.5)"><rect width="0.5" height="0.5" fill="#313032"/></g><g transform="translate(50.75 13.5)"><g transform="translate(0)"><rect width="3.5" height="0.5" fill="#313032"/></g></g><g transform="translate(56.75 11.5)"><g transform="translate(0)"><path d="M329.25,368a1.25,1.25,0,0,0-1.25,1.25v1a1.25,1.25,0,0,0,2.5,0v-1A1.25,1.25,0,0,0,329.25,368Zm.75,2.25a.75.75,0,0,1-1.5,0v-1a.75.75,0,0,1,1.5,0Z" transform="translate(-328 -368)" fill="#313032"/></g></g><g transform="translate(57.75 12.5)"><rect width="0.5" height="0.5" fill="#313032"/></g></g></svg>